<svg width="288" height="192" viewBox="0 0 288 192" fill="none" xmlns="http://www.w3.org/2000/svg">
<path d="M196.954 107.948C199.834 97.6232 202.138 87.1386 203.866 76.5577C205.626 72.5498 207.609 68.6381 209.785 64.8546C212.473 60.2055 215.641 55.909 218.585 51.4201C221.209 47.4122 223.577 42.9875 223.865 38.146C224.089 34.3625 223.257 30.2905 220.729 27.3407C217.945 24.0702 213.657 22.7877 209.465 23.1724C204.922 23.5572 200.794 25.9619 197.274 28.7514C193.466 31.7974 189.914 35.2603 186.554 38.7552C180.059 45.5205 174.299 52.9912 169.339 60.9429C165.691 59.5321 162.171 57.8328 158.651 56.1655C153.532 53.7287 148.348 51.5805 142.844 50.1376C133.02 47.5725 121.949 46.5786 112.317 50.362C103.613 53.7928 96.2857 61.6162 96.1577 71.3635C96.0937 75.211 97.2137 78.5777 99.0696 81.5275C95.1017 83.7078 91.7419 86.8179 89.6619 90.922C87.55 95.0902 87.134 100.188 88.862 104.549C89.502 106.152 90.3979 107.595 91.4859 108.877C88.254 111.827 85.3421 115.579 83.9982 119.779C82.7182 123.755 83.4542 127.763 85.5661 131.322C86.1741 132.316 86.878 133.245 87.646 134.143C84.0942 137.253 82.9422 142.351 83.9982 146.904C85.2141 152.259 89.118 156.427 93.3098 159.73C96.5417 162.263 99.9976 164.539 103.581 166.559C105.373 167.681 107.261 168.739 109.149 169.701C111.165 170.695 113.277 171.625 115.421 172.266C116.893 172.715 118.397 173.1 119.901 173.292C120.925 173.421 121.949 173.485 122.973 173.453C123.485 173.453 123.997 173.421 124.477 173.357C125.885 173.228 127.293 172.844 128.668 172.395C129.628 172.074 130.556 171.657 131.452 171.144C132.156 170.759 132.86 170.343 133.5 169.894C137.532 170.856 141.628 171.401 145.788 171.337C154.651 171.176 162.971 167.585 169.691 161.846C177.083 155.561 182.298 147.193 186.266 138.408C190.714 128.66 194.042 118.304 196.954 107.948Z" fill="#EF9E81"/>
<path d="M88.1513 135.176C94.277 139.126 100.627 142.754 107.138 145.997C110.345 147.603 113.616 149.144 116.952 150.493C120.255 151.842 123.655 152.998 127.182 153.704C130.454 154.346 134.014 154.668 137.317 154.025C139.37 153.64 141.583 153.126 143.347 151.97C144.405 151.296 145.303 150.429 146.137 149.498C146.874 148.663 147.644 147.764 148.189 146.8C149.055 145.227 149.536 143.461 149.729 141.694C150.274 137.231 148.831 132.607 145.239 129.781C144.726 129.364 144.148 128.978 143.571 128.657C143.122 128.4 142.737 129.075 143.154 129.364C145.239 130.584 146.906 132.318 147.933 134.534C148.799 136.396 149.119 138.515 149.023 140.571C148.927 142.337 148.574 144.103 147.837 145.708C147.516 146.415 147.099 147.057 146.618 147.667C145.752 148.791 144.79 149.851 143.699 150.75C142.16 152.002 140.268 152.548 138.375 152.998C135.232 153.768 131.929 153.672 128.754 153.19C121.891 152.131 115.444 149.176 109.254 146.158C102.904 143.075 96.7144 139.639 90.7491 135.882C90.0115 135.433 89.3059 134.951 88.5683 134.501C88.1193 134.212 87.7023 134.919 88.1513 135.176Z" fill="#C4674E"/>
<path d="M94.1167 110.064C101.269 113.436 108.485 116.712 115.701 119.858C122.628 122.909 129.62 125.96 136.932 127.983C140.46 128.978 144.245 129.909 147.933 129.267C150.659 128.786 153.16 127.405 155.085 125.446C157.041 123.455 158.452 120.886 159.03 118.124C159.382 116.519 159.254 114.849 158.965 113.243C158.099 108.587 155.277 104.381 151.172 102.036C150.563 101.683 149.921 101.394 149.248 101.105C148.767 100.913 148.574 101.683 149.023 101.876C153.481 103.738 156.688 107.592 157.907 112.216C158.324 113.821 158.548 115.523 158.356 117.161C158.099 119.537 156.913 121.946 155.438 123.808C153.738 125.895 151.461 127.469 148.863 128.208C145.431 129.139 141.839 128.432 138.472 127.533C131.384 125.703 124.617 122.845 117.914 119.923C110.922 116.872 103.995 113.757 97.0673 110.546C96.2013 110.129 95.3354 109.743 94.4695 109.326C94.0525 109.165 93.6677 109.872 94.1167 110.064Z" fill="#C4674E"/>
<path d="M101.654 82.8657C109.768 86.2374 117.625 90.1872 125.611 93.7516C129.556 95.5177 133.565 97.1875 137.638 98.6647C141.775 100.174 146.073 101.651 150.466 102.133C154.283 102.582 158.356 102.069 161.595 99.8207C163.071 98.7931 164.321 97.4444 165.123 95.8388C165.957 94.2012 166.342 92.3387 166.31 90.5083C166.31 86.7191 164.61 83.2189 162.108 80.4252C159.382 77.3746 155.79 75.2552 152.07 73.6175C148.895 72.2046 145.624 71.0486 142.384 69.7963C139.209 68.576 136.098 67.2915 133.02 65.8786C132.025 65.4291 131.031 64.9795 130.037 64.4978C129.588 64.273 129.171 64.9795 129.62 65.2043C132.955 66.7456 136.323 68.2228 139.722 69.6036C142.577 70.7275 145.431 71.8193 148.286 72.9111C152.102 74.3882 155.919 76.0902 159.126 78.6912C161.948 81.0032 164.353 84.086 165.187 87.6825C166.021 91.2148 165.284 95.1966 162.686 97.8298C160.088 100.463 156.271 101.491 152.647 101.426C148.286 101.362 143.988 99.9491 139.915 98.5683C135.842 97.1875 131.865 95.582 127.952 93.88C120.127 90.4762 112.494 86.6228 104.636 83.2511C103.706 82.8336 102.744 82.4483 101.814 82.0629C101.397 81.8703 101.172 82.673 101.654 82.8657Z" fill="#C4674E"/>
<path d="M134.174 168.315C135.361 165.874 135.842 163.081 135.521 160.383C135.361 159.067 135.04 157.75 134.527 156.498C134.078 155.406 133.501 153.961 132.282 153.576C131.801 153.415 131.576 154.186 132.057 154.346C132.603 154.507 132.923 155.053 133.18 155.534C133.468 156.08 133.725 156.626 133.95 157.204C134.366 158.36 134.655 159.548 134.751 160.769C134.976 163.209 134.527 165.682 133.468 167.897C133.244 168.379 133.95 168.797 134.174 168.315Z" fill="#C4674E"/>
<path d="M147.259 95.9672C147.42 91.022 149.568 86.2373 153.128 82.8335C153.513 82.4803 152.936 81.9023 152.551 82.2555C148.831 85.8199 146.618 90.7972 146.425 95.9351C146.457 96.481 147.259 96.481 147.259 95.9672Z" fill="#C4674E"/>
<path d="M151.878 83.9253C153.674 84.4391 155.47 85.0492 157.105 85.9805C158.42 86.719 159.639 87.8108 159.896 89.3843C160.152 90.9257 159.447 92.4991 158.324 93.5267C157.137 94.6506 155.47 95.1644 153.866 95.2929C151.653 95.4534 149.472 94.8433 147.356 94.2332C146.874 94.1047 146.65 94.8754 147.131 95.0039C150.851 96.0957 155.309 97.0269 158.613 94.3295C159.896 93.2698 160.761 91.6321 160.729 89.9302C160.729 88.1641 159.703 86.7512 158.324 85.7878C157.49 85.2098 156.56 84.7602 155.63 84.3749C154.475 83.8932 153.289 83.4758 152.07 83.1225C151.589 82.9941 151.397 83.7648 151.878 83.9253Z" fill="#C4674E"/>
<path d="M137.477 121.464C137.638 116.166 139.947 111.06 143.763 107.399C144.148 107.046 143.571 106.468 143.186 106.821C139.209 110.61 136.836 115.941 136.644 121.464C136.644 121.978 137.445 121.978 137.477 121.464Z" fill="#C4674E"/>
<path d="M142.448 108.555C144.341 109.101 146.265 109.775 147.997 110.739C149.44 111.541 150.787 112.729 151.044 114.464C151.268 116.101 150.53 117.771 149.344 118.863C148.029 120.083 146.233 120.629 144.501 120.757C142.128 120.918 139.819 120.276 137.574 119.633C137.093 119.505 136.868 120.276 137.349 120.404C141.262 121.56 146.008 122.556 149.504 119.762C150.915 118.638 151.845 116.872 151.845 115.042C151.845 113.147 150.723 111.638 149.248 110.578C148.35 109.936 147.355 109.486 146.361 109.069C145.142 108.555 143.892 108.105 142.641 107.752C142.16 107.624 141.935 108.394 142.448 108.555Z" fill="#C4674E"/>
<path d="M128.818 147.314C128.978 142.015 131.288 136.91 135.104 133.249C135.489 132.896 134.912 132.318 134.527 132.671C130.55 136.46 128.177 141.791 127.984 147.314C127.984 147.828 128.786 147.828 128.818 147.314Z" fill="#C4674E"/>
<path d="M133.789 134.373C135.682 134.919 137.606 135.593 139.338 136.556C140.781 137.359 142.128 138.547 142.384 140.281C142.609 141.919 141.871 143.589 140.685 144.681C139.37 145.901 137.574 146.447 135.842 146.575C133.469 146.736 131.159 146.094 128.914 145.451C128.433 145.323 128.209 146.094 128.69 146.222C132.603 147.378 137.349 148.374 140.845 145.58C142.256 144.456 143.186 142.69 143.186 140.859C143.186 138.965 142.064 137.456 140.588 136.396C139.69 135.754 138.696 135.304 137.702 134.887C136.483 134.373 135.233 133.923 133.982 133.57C133.501 133.442 133.276 134.244 133.789 134.373Z" fill="#C4674E"/>
<path d="M118.523 166.806C118.651 162.824 120.383 158.97 123.27 156.209C123.654 155.856 123.077 155.278 122.692 155.631C119.645 158.521 117.849 162.599 117.721 166.774C117.721 167.32 118.523 167.32 118.523 166.806Z" fill="#C4674E"/>
<path d="M122.179 157.108C123.59 157.525 125.034 158.007 126.316 158.746C127.375 159.356 128.401 160.223 128.594 161.507C128.786 162.728 128.209 164.012 127.311 164.815C126.316 165.714 124.969 166.099 123.687 166.196C121.923 166.292 120.223 165.842 118.523 165.329C118.042 165.2 117.817 165.971 118.299 166.099C121.313 166.966 124.937 167.737 127.599 165.585C128.69 164.718 129.395 163.37 129.395 161.957C129.395 160.512 128.561 159.324 127.407 158.489C125.932 157.429 124.071 156.819 122.34 156.337C121.891 156.177 121.698 156.947 122.179 157.108Z" fill="#C4674E"/>
<path d="M219.773 132.51L217.111 123.358L214.642 132.51L205.79 135.432L214.642 138.419L217.111 148.341L219.901 138.483L228.432 135.432L219.773 132.51Z" fill="#FFD62A"/>
<path d="M72.4682 62.0894L69.8705 53.1302L67.433 62.0573L58.7737 64.9474L67.433 67.8374L69.8705 77.5673L72.5965 67.9016L80.9672 64.9474L72.4682 62.0894Z" fill="#FFD62A"/>
<path d="M237.028 108.972L235.424 103.449L233.917 108.972L228.593 110.706L233.917 112.505L235.424 118.509L237.092 112.569L242.255 110.706L237.028 108.972Z" fill="#FFD62A"/>
<path d="M53.6744 91.7926L52.1029 86.3978L50.6276 91.7926L45.3999 93.5266L50.6276 95.2607L52.1029 101.137L53.7385 95.2928L58.7737 93.5266L53.6744 91.7926Z" fill="#FFD62A"/>
<path d="M154.956 22.4635L153.674 18L152.455 22.4635L148.157 23.8764L152.455 25.3215L153.674 30.1703L155.021 25.3536L159.19 23.8764L154.956 22.4635Z" fill="#FFD62A"/>
<path d="M71.1534 160.255L69.8706 155.791L68.6518 160.255L64.3542 161.7L68.6518 163.145L69.8706 167.962L71.2176 163.177L75.3869 161.7L71.1534 160.255Z" fill="#FFD62A"/>
</svg>
